# xmcd
#
# Track frame offsets: 
#        150
#        16090
#        34251
#        51145
#        77247
#        98442
#        115072
#        134641
#        159485
#        178090
#        201797
#
# Disc length: 2990 seconds
#
# Revision: 0
# Processed by: cddbd v1.5.2PL0 Copyright (c) Steve Scherf et al.
# Submitted via: ExactAudioCopy v0.99pb5
#
DISCID=890bac0b
DTITLE=Lost Immigrants - Pasaporte
DYEAR=2010
DGENRE=Country
TTITLE0=Song To Sing
TTITLE1=Rolling Stone
TTITLE2=Abilene
TTITLE3=Rose Of Tokyo
TTITLE4=Genevieve
TTITLE5=Goodbye Seoul
TTITLE6=AM Radio
TTITLE7=Below
TTITLE8=Red Leather Dress
TTITLE9=Leaving Laredo (The Night Gilberto Hit The Floor)
TTITLE10=Rollin' On
EXTD=
EXTT0=
EXTT1=
EXTT2=
EXTT3=
EXTT4=
EXTT5=
EXTT6=
EXTT7=
EXTT8=
EXTT9=
EXTT10=
PLAYORDER=
